<svg width="170" height="23" viewBox="0 0 170 23" fill="none" xmlns="http://www.w3.org/2000/svg">
<path d="M81.2559 3.52411C80.2602 2.52822 79.0826 1.75282 77.7229 1.19495C76.3752 0.638549 74.8972 0.360352 73.292 0.360352C71.6868 0.360352 70.2517 0.638549 68.8936 1.19495C67.5443 1.75134 66.3681 2.52822 65.3621 3.52411C64.3561 4.52 63.569 5.68607 63.0024 7.02527C62.4461 8.35263 62.168 9.78801 62.168 11.3285C62.168 12.8689 62.4298 14.3265 62.955 15.6642C63.4788 16.9916 64.2288 18.1591 65.2023 19.1654C66.1758 20.1612 67.3431 20.9366 68.7027 21.493C70.0727 22.0494 71.6039 22.3276 73.295 22.3276C74.986 22.3276 76.4477 22.0494 77.8058 21.493C79.1654 20.9366 80.3371 20.1598 81.3224 19.1654C82.3181 18.1591 83.083 16.9916 83.6185 15.6642C84.1541 14.3265 84.4219 12.8807 84.4219 11.3285C84.4219 9.77617 84.1437 8.35263 83.5875 7.02527C83.0416 5.68755 82.2663 4.52 81.2603 3.52411H81.2559ZM77.3708 13.9462C76.9862 14.7275 76.4447 15.3534 75.7493 15.8255C75.054 16.2857 74.2344 16.5166 73.2935 16.5166C72.3525 16.5166 71.5492 16.2857 70.8524 15.8255C70.157 15.3549 69.6155 14.7275 69.2309 13.9462C68.8462 13.1545 68.6524 12.2814 68.6524 11.3285C68.6524 10.3755 68.8447 9.50833 69.2309 8.72701C69.6155 7.94569 70.157 7.31974 70.8524 6.84769C71.5477 6.37712 72.3614 6.14184 73.2935 6.14184C74.2255 6.14184 75.054 6.37712 75.7493 6.84769C76.4447 7.31826 76.9862 7.94569 77.3708 8.72701C77.7555 9.50833 77.9493 10.3755 77.9493 11.3285C77.9493 12.2814 77.7569 13.1545 77.3708 13.9462Z" fill="#38332E"/>
<path d="M59.0219 12.5951C59.6433 12.1778 60.1729 11.5518 60.6108 10.7158C61.0606 9.86934 61.2855 8.7669 61.2855 7.40847C61.2855 6.05003 61.0074 4.85585 60.4511 3.85997C59.8948 2.85372 59.124 2.08275 58.1387 1.54708C57.1534 1.00104 56.0201 0.72876 54.7345 0.72876H45.2305V21.9266H51.459V14.6505L55.4091 21.9266H62.3773L57.3043 13.4001C57.8295 13.2817 58.402 13.0153 59.0219 12.5966V12.5951ZM54.1101 9.27003C53.5968 9.53787 53.0553 9.67105 52.4887 9.67105H51.4605V5.56023H52.536C53.1027 5.56023 53.6382 5.69341 54.1412 5.96125C54.6442 6.22909 54.8957 6.77956 54.8957 7.61564C54.8957 8.45171 54.6339 9.00219 54.1087 9.27003H54.1101Z" fill="#38332E"/>
<path d="M42.9437 7.14892L42.386 5.79788L32.339 9.94718L34.1158 14.2518L37.6473 12.7928C37.7242 13.1198 37.7227 13.4394 37.6428 13.7502C37.5689 14.0476 37.4165 14.3362 37.1842 14.6174C36.9593 14.8837 36.6546 15.1427 36.2714 15.3942C35.8941 15.631 35.4488 15.8559 34.934 16.069C34.2904 16.3354 33.6513 16.4538 33.0151 16.4271C32.3893 16.396 31.7975 16.2407 31.2413 15.961C30.682 15.671 30.179 15.2818 29.7352 14.7934C29.2958 14.2918 28.9392 13.7088 28.6655 13.0458C28.3963 12.3932 28.2409 11.7377 28.2025 11.0822C28.1684 10.4118 28.2498 9.78292 28.4466 9.19101C28.6389 8.59022 28.9451 8.0575 29.3683 7.59433C29.7958 7.11636 30.3314 6.74494 30.9749 6.47858C32.0431 6.03761 32.9308 5.91478 33.6365 6.10863C34.3526 6.29953 34.9458 6.57476 35.4192 6.93583L39.9094 2.16207C39.4374 1.77733 38.8604 1.40295 38.1769 1.03596C37.489 0.660097 36.6886 0.375979 35.7758 0.186568C34.8585 -0.0132019 33.8185 -0.053156 32.6527 0.0696655C31.4869 0.192487 30.1923 0.547633 28.7676 1.13658C27.195 1.78621 25.8812 2.62968 24.8278 3.667C23.7833 4.69989 23.0022 5.86299 22.4814 7.15484C21.9607 8.44668 21.7136 9.81104 21.7402 11.2494C21.7713 12.6729 22.082 14.0965 22.6708 15.5215C23.2626 16.9569 24.0526 18.194 25.0379 19.2343C26.0291 20.2612 27.1669 21.0529 28.451 21.6123C29.7307 22.1613 31.1052 22.4321 32.5742 22.4276C34.0537 22.4187 35.579 22.0902 37.1517 21.4406C38.6755 20.8117 39.9434 19.986 40.9583 18.9649C41.9732 17.9439 42.7248 16.7926 43.216 15.5126C43.713 14.2193 43.9394 12.8623 43.898 11.4432C43.8521 10.0138 43.5325 8.58282 42.9408 7.14744L42.9437 7.14892Z" fill="#38332E"/>
<path d="M8.73321 0.7229L0 21.9207H6.64719L8.01124 18.2435H15.5727L16.922 21.9207H23.5529L14.8197 0.7229H8.73469H8.73321ZM10.0987 12.8467L11.769 8.17357H11.8179L13.4882 12.8467H10.1002H10.0987Z" fill="#38332E"/>
<path d="M154.631 8.61443H149.287V0.734619H143.078V21.9191H149.287V13.9905H154.631V21.9191H160.824V0.734619H154.631V8.61443Z" fill="#38332E"/>
<path d="M134.955 13.3172C134.955 14.0985 134.858 14.7407 134.666 15.2423C134.474 15.7351 134.185 16.0977 133.801 16.3344C133.416 16.5697 132.929 16.6881 132.34 16.6881C131.752 16.6881 131.244 16.5712 130.848 16.3344C130.463 16.0991 130.173 15.7351 129.982 15.2423C129.788 14.7392 129.694 14.097 129.694 13.3172V0.734619H123.484V13.6545C123.484 15.3992 123.822 16.9175 124.495 18.2123C125.169 19.5071 126.164 20.5133 127.479 21.2295C128.804 21.9457 130.426 22.3053 132.34 22.3053C134.255 22.3053 135.864 21.9472 137.169 21.2295C138.486 20.5133 139.48 19.5071 140.155 18.2123C140.829 16.9175 141.165 15.3977 141.165 13.6545V0.734619H134.956V13.3172H134.955Z" fill="#38332E"/>
<path d="M119.472 12.595C120.092 12.1777 120.622 11.5518 121.061 10.7172C121.511 9.87224 121.736 8.76981 121.736 7.41137C121.736 6.05294 121.458 4.86024 120.902 3.86435C120.345 2.8581 119.575 2.08861 118.591 1.55294C117.607 1.0069 116.472 0.734619 115.189 0.734619H105.691V21.9191H111.917V14.6475L115.864 21.9191H122.828L117.758 13.3971C118.282 13.2802 118.854 13.0123 119.474 12.595H119.472ZM114.564 9.27293C114.05 9.54077 113.51 9.67395 112.944 9.67395H111.917V5.56609H112.992C113.559 5.56609 114.095 5.69927 114.598 5.96711C115.101 6.23495 115.352 6.78543 115.352 7.62002C115.352 8.45461 115.09 9.00509 114.567 9.27293H114.564Z" fill="#38332E"/>
<path d="M103.926 0.734619H96.946L91.9085 8.69434V0.734619H85.6992V21.9191H91.9085V13.0108L97.4757 21.9191H104.873L97.2523 10.7971L103.926 0.734619Z" fill="#38332E"/>
<path d="M167.64 3.02011C167.65 2.30686 167.163 1.84961 166.311 1.84961H164.508V5.30933H165.301V4.16842H166.094L166.847 5.30933H167.68L166.857 4.08999C167.363 3.93165 167.631 3.54395 167.64 3.01863V3.02011ZM166.243 3.53507H165.301V2.49331H166.243C166.689 2.49331 166.878 2.71084 166.878 3.00827C166.878 3.30571 166.69 3.53359 166.243 3.53359V3.53507Z" fill="#38332E"/>
<path d="M165.957 0.0549316C164.004 0.0549316 162.418 1.54211 162.418 3.5842C162.418 5.62629 164.004 7.12383 165.957 7.12383C167.91 7.12383 169.496 5.63665 169.496 3.5842C169.496 1.53175 167.91 0.0549316 165.957 0.0549316ZM165.957 6.40022C164.4 6.40022 163.162 5.24007 163.162 3.5842C163.162 1.92833 164.402 0.778542 165.957 0.778542C167.512 0.778542 168.752 1.93869 168.752 3.5842C168.752 5.22971 167.503 6.40022 165.957 6.40022Z" fill="#38332E"/>
</svg>
