<svg width="17" height="17" viewBox="0 0 17 17" fill="none" xmlns="http://www.w3.org/2000/svg">
<path d="M3.76899 5.51465H0.28125V16.6069H3.76899V5.51465Z" fill="#1D4933"/>
<path d="M2.0218 0C0.904161 0 0 0.890963 0 1.99741C0 3.10387 0.904161 3.99897 2.0218 3.99897C3.13943 3.99897 4.03939 3.09972 4.03939 1.99741C4.03939 0.895107 3.13524 0 2.0218 0Z" fill="#1D4933"/>
<path d="M12.6316 5.24926C10.9359 5.24926 9.80123 6.16947 9.33648 7.03994H9.29043V5.52284H5.94922V16.6151H9.42859V11.127C9.42859 9.68035 9.73425 8.27931 11.5179 8.27931C13.3015 8.27931 13.3267 9.9332 13.3267 11.2223V16.6151H16.806V10.5301C16.806 7.54149 16.1571 5.24512 12.6316 5.24512V5.24926Z" fill="#1D4933"/>
</svg>
