<svg width="73" height="19" viewBox="0 0 73 19" fill="none" xmlns="http://www.w3.org/2000/svg">
<path d="M12.1332 11.3431C12.1332 14.1882 10.0514 16.496 7.4624 16.496C6.17649 16.496 5.00021 15.9188 4.14897 14.9833V16.2173H1.97656V2.07129H4.14897V7.72175C5.00021 6.78629 6.17649 6.20909 7.4624 6.20909C10.0514 6.21014 12.1332 8.51788 12.1332 11.3431ZM9.94271 11.363C9.94271 9.61256 8.6568 8.17952 7.04584 8.17952C5.45299 8.17952 4.14897 9.61256 4.14897 11.363C4.14897 13.1334 5.45299 14.5465 7.04584 14.5465C8.6568 14.5465 9.94271 13.1344 9.94271 11.363Z" fill="#E7FD83"/>
<path d="M50.6804 12.4182V16.2187H48.4536V11.7216C48.4536 10.9454 48.4899 9.89157 48.0008 9.27457C47.5662 8.71727 46.8961 8.45853 46.245 8.47843C45.4843 8.51824 44.941 8.75708 44.5254 9.27457C44.1269 9.75225 44.0545 10.429 44.0545 11.0847V12.4182C44.0545 13.3935 44.0545 14.3876 44.0545 15.4027V16.2187H41.8821V11.7216C41.8821 10.9454 41.9183 9.89157 41.4293 9.27457C40.9946 8.71727 40.3426 8.45853 39.6734 8.47843C38.9309 8.51824 38.3694 8.75708 37.9538 9.27457C37.4648 9.89157 37.4829 10.827 37.4829 11.6221V13.3726C37.4829 14.3279 37.4829 15.2623 37.4829 16.2177H35.3086V6.48915H37.481V7.94104C37.481 7.82162 38.5134 6.17069 40.6495 6.32887C41.863 6.42839 42.8219 7.06529 43.4015 8.11912C43.8 7.52202 45.1211 6.12984 47.2221 6.32887C48.7434 6.46819 49.8472 7.42356 50.3363 8.99487C50.6804 10.0906 50.6804 11.2639 50.6804 12.4182Z" fill="#E7FD83"/>
<path d="M61.2017 10.8251L54.2307 12.6164C54.7559 13.8106 55.9684 14.4863 57.1638 14.1878C57.9607 13.9887 58.6127 13.3916 58.9559 12.5557L60.7661 13.4712C60.4763 14.1479 60.0597 14.7849 59.5345 15.2615C58.973 15.779 58.3391 16.1372 57.6156 16.3164C56.4203 16.6149 55.1897 16.396 54.1392 15.6596C53.0887 14.943 52.3652 13.8096 52.0755 12.4761C51.8038 11.1624 52.003 9.79016 52.6369 8.63577C53.2889 7.46147 54.3022 6.66638 55.5157 6.34793C56.711 6.04938 57.9416 6.26832 58.9921 7.00474C59.7528 7.52223 60.3323 8.25865 60.7117 9.11345C60.8566 9.45181 60.9834 9.81007 61.0558 10.1882L61.2017 10.8251ZM58.6852 9.63198C58.0875 8.69653 57.0199 8.21885 55.9694 8.47759C54.9008 8.75624 54.1411 9.7116 53.9781 10.845L58.6852 9.63198Z" fill="#E7FD83"/>
<path d="M70.9599 16.2189H68.4615C67.8095 15.2834 66.9954 14.1101 66.1804 12.9159C65.3473 14.1101 64.5504 15.2834 63.8993 16.2189H61.3828C62.4876 14.6266 63.7363 12.8164 64.9317 11.1058C63.5914 9.19611 62.3608 7.40481 61.745 6.48926H64.2435C64.7687 7.26549 65.4388 8.23971 66.1804 9.29458L68.0993 6.48926H70.5977C69.9819 7.40481 68.7503 9.19507 67.4291 11.1058L70.9599 16.2189Z" fill="#E7FD83"/>
<path d="M20.4277 6.58789C19.9082 7.41993 19.0093 7.97131 17.9894 7.97131C16.9694 7.97131 16.0705 7.41993 15.551 6.58789H13.4062C14.063 8.57146 15.8665 9.99668 17.9894 9.99668C20.1122 9.99668 21.9157 8.57146 22.5735 6.58789H20.4277Z" fill="#E7FD83"/>
<path d="M31.3005 6.58789C31.3768 6.86856 31.4178 7.16614 31.4178 7.47368C31.4178 9.17061 30.1776 10.55 28.6543 10.55C27.1311 10.55 25.8909 9.16961 25.8909 7.47368C25.8909 7.16614 25.9319 6.86856 26.0082 6.58789H24.0607C24.014 6.87552 23.9883 7.17112 23.9883 7.47368C23.9883 10.2704 26.0778 12.5376 28.6553 12.5376C31.2328 12.5376 33.3204 10.2704 33.3204 7.47368C33.3204 7.17112 33.2947 6.87552 33.248 6.58789H31.3005V6.58789Z" fill="#E7FD83"/>
<path d="M15.1729 16.342C15.1119 16.0972 15.0795 15.8404 15.0795 15.5756C15.0795 13.9006 16.3845 12.5371 17.9897 12.5371C19.5949 12.5371 20.8999 13.8996 20.8999 15.5756C20.8999 15.8404 20.8675 16.0972 20.8065 16.342H22.7854C22.8216 16.0922 22.8407 15.8364 22.8407 15.5756C22.8407 12.7789 20.6692 10.5117 17.9907 10.5117C15.3121 10.5117 13.1406 12.7789 13.1406 15.5756C13.1406 15.8364 13.1597 16.0922 13.1959 16.342H15.1729Z" fill="#E7FD83"/>
<path d="M26.4621 16.3412C26.9683 15.6107 27.7614 15.1389 28.6517 15.1389C29.542 15.1389 30.3361 15.6107 30.8413 16.3412H32.987C32.3007 14.4731 30.6182 13.1514 28.6517 13.1514C26.6852 13.1514 25.0027 14.4731 24.3164 16.3412H26.4621Z" fill="#E7FD83"/>
</svg>
