<svg width="170" height="23" viewBox="0 0 170 23" fill="none" xmlns="http://www.w3.org/2000/svg">
<path d="M81.3535 3.52411C80.3578 2.52822 79.1802 1.75282 77.8206 1.19495C76.4728 0.638549 74.9949 0.360352 73.3896 0.360352C71.7844 0.360352 70.3494 0.638549 68.9912 1.19495C67.642 1.75134 66.4658 2.52822 65.4598 3.52411C64.4537 4.52 63.6667 5.68607 63.1001 7.02527C62.5438 8.35263 62.2656 9.78801 62.2656 11.3285C62.2656 12.8689 62.5275 14.3265 63.0527 15.6642C63.5764 16.9916 64.3265 18.1591 65.3 19.1654C66.2735 20.1612 67.4408 20.9366 68.8004 21.493C70.1704 22.0494 71.7016 22.3276 73.3926 22.3276C75.0836 22.3276 76.5453 22.0494 77.9035 21.493C79.2631 20.9366 80.4348 20.1598 81.4201 19.1654C82.4157 18.1591 83.1806 16.9916 83.7162 15.6642C84.2518 14.3265 84.5196 12.8807 84.5196 11.3285C84.5196 9.77617 84.2414 8.35263 83.6851 7.02527C83.1392 5.68755 82.364 4.52 81.358 3.52411H81.3535ZM77.4685 13.9462C77.0838 14.7275 76.5423 15.3534 75.847 15.8255C75.1517 16.2857 74.3321 16.5166 73.3911 16.5166C72.4502 16.5166 71.6469 16.2857 70.95 15.8255C70.2547 15.3549 69.7132 14.7275 69.3285 13.9462C68.9439 13.1545 68.7501 12.2814 68.7501 11.3285C68.7501 10.3755 68.9424 9.50833 69.3285 8.72701C69.7132 7.94569 70.2547 7.31974 70.95 6.84769C71.6454 6.37712 72.4591 6.14184 73.3911 6.14184C74.3232 6.14184 75.1517 6.37712 75.847 6.84769C76.5423 7.31826 77.0838 7.94569 77.4685 8.72701C77.8531 9.50833 78.047 10.3755 78.047 11.3285C78.047 12.2814 77.8546 13.1545 77.4685 13.9462Z" fill="#E7FD83"/>
<path d="M59.1196 12.5951C59.7409 12.1778 60.2706 11.5518 60.7085 10.7158C61.1583 9.86934 61.3831 8.7669 61.3831 7.40847C61.3831 6.05003 61.105 4.85585 60.5487 3.85997C59.9925 2.85372 59.2217 2.08275 58.2363 1.54708C57.251 1.00104 56.1178 0.72876 54.8321 0.72876H45.3281V21.9266H51.5566V14.6505L55.5068 21.9266H62.475L57.4019 13.4001C57.9272 13.2817 58.4997 13.0153 59.1196 12.5966V12.5951ZM54.2078 9.27003C53.6944 9.53787 53.153 9.67105 52.5863 9.67105H51.5581V5.56023H52.6337C53.2003 5.56023 53.7358 5.69341 54.2389 5.96125C54.7419 6.22909 54.9934 6.77956 54.9934 7.61564C54.9934 8.45171 54.7315 9.00219 54.2063 9.27003H54.2078Z" fill="#E7FD83"/>
<path d="M43.0414 7.14892L42.4836 5.79788L32.4367 9.94718L34.2135 14.2518L37.7449 12.7928C37.8219 13.1198 37.8204 13.4394 37.7405 13.7502C37.6665 14.0476 37.5142 14.3362 37.2819 14.6174C37.057 14.8837 36.7522 15.1427 36.3691 15.3942C35.9918 15.631 35.5465 15.8559 35.0316 16.069C34.3881 16.3354 33.7489 16.4538 33.1128 16.4271C32.487 16.396 31.8952 16.2407 31.3389 15.961C30.7797 15.671 30.2767 15.2818 29.8328 14.7934C29.3934 14.2918 29.0369 13.7088 28.7632 13.0458C28.4939 12.3932 28.3386 11.7377 28.3001 11.0822C28.2661 10.4118 28.3475 9.78292 28.5442 9.19101C28.7366 8.59022 29.0428 8.0575 29.4659 7.59433C29.8935 7.11636 30.429 6.74494 31.0726 6.47858C32.1408 6.03761 33.0285 5.91478 33.7342 6.10863C34.4502 6.29953 35.0435 6.57476 35.5169 6.93583L40.007 2.16207C39.5351 1.77733 38.9581 1.40295 38.2746 1.03596C37.5866 0.660097 36.7863 0.375979 35.8734 0.186568C34.9562 -0.0132019 33.9161 -0.053156 32.7503 0.0696655C31.5845 0.192487 30.29 0.547633 28.8653 1.13658C27.2926 1.78621 25.9789 2.62968 24.9255 3.667C23.881 4.69989 23.0999 5.86299 22.5791 7.15484C22.0583 8.44668 21.8113 9.81104 21.8379 11.2494C21.8689 12.6729 22.1796 14.0965 22.7684 15.5215C23.3602 16.9569 24.1503 18.194 25.1356 19.2343C26.1268 20.2612 27.2645 21.0529 28.5487 21.6123C29.8284 22.1613 31.2028 22.4321 32.6719 22.4276C34.1514 22.4187 35.6767 22.0902 37.2493 21.4406C38.7732 20.8117 40.0411 19.986 41.056 18.9649C42.0709 17.9439 42.8224 16.7926 43.3136 15.5126C43.8107 14.2193 44.0371 12.8623 43.9956 11.4432C43.9498 10.0138 43.6302 8.58282 43.0384 7.14744L43.0414 7.14892Z" fill="#E7FD83"/>
<path d="M8.83087 0.7229L0.0976562 21.9207H6.74484L8.10889 18.2435H15.6704L17.0196 21.9207H23.6505L14.9173 0.7229H8.83235H8.83087ZM10.1964 12.8467L11.8667 8.17357H11.9155L13.5858 12.8467H10.1979H10.1964Z" fill="#E7FD83"/>
<path d="M154.729 8.61443H149.385V0.734619H143.176V21.9191H149.385V13.9905H154.729V21.9191H160.922V0.734619H154.729V8.61443Z" fill="#E7FD83"/>
<path d="M135.052 13.3172C135.052 14.0985 134.956 14.7407 134.764 15.2423C134.571 15.7351 134.283 16.0977 133.898 16.3344C133.514 16.5697 133.027 16.6881 132.438 16.6881C131.849 16.6881 131.342 16.5712 130.945 16.3344C130.561 16.0991 130.271 15.7351 130.08 15.2423C129.886 14.7392 129.791 14.097 129.791 13.3172V0.734619H123.582V13.6545C123.582 15.3992 123.919 16.9175 124.592 18.2123C125.267 19.5071 126.261 20.5133 127.577 21.2295C128.902 21.9457 130.524 22.3053 132.438 22.3053C134.352 22.3053 135.962 21.9472 137.267 21.2295C138.584 20.5133 139.578 19.5071 140.252 18.2123C140.927 16.9175 141.263 15.3977 141.263 13.6545V0.734619H135.054V13.3172H135.052Z" fill="#E7FD83"/>
<path d="M119.57 12.595C120.19 12.1777 120.72 11.5518 121.159 10.7172C121.609 9.87224 121.834 8.76981 121.834 7.41137C121.834 6.05294 121.556 4.86024 120.999 3.86435C120.443 2.8581 119.672 2.08861 118.688 1.55294C117.705 1.0069 116.57 0.734619 115.287 0.734619H105.789V21.9191H112.015V14.6475L115.962 21.9191H122.926L117.855 13.3971C118.379 13.2802 118.952 13.0123 119.572 12.595H119.57ZM114.661 9.27293C114.148 9.54077 113.608 9.67395 113.041 9.67395H112.015V5.56609H113.09C113.657 5.56609 114.192 5.69927 114.695 5.96711C115.198 6.23495 115.45 6.78543 115.45 7.62002C115.45 8.45461 115.188 9.00509 114.664 9.27293H114.661Z" fill="#E7FD83"/>
<path d="M104.024 0.734619H97.0437L92.0061 8.69434V0.734619H85.7969V21.9191H92.0061V13.0108L97.5733 21.9191H104.971L97.3499 10.7971L104.024 0.734619Z" fill="#E7FD83"/>
<path d="M167.737 3.02011C167.748 2.30686 167.261 1.84961 166.409 1.84961H164.605V5.30933H165.398V4.16842H166.191L166.944 5.30933H167.777L166.955 4.08999C167.461 3.93165 167.729 3.54395 167.737 3.01863V3.02011ZM166.341 3.53507H165.398V2.49331H166.341C166.786 2.49331 166.976 2.71084 166.976 3.00827C166.976 3.30571 166.788 3.53359 166.341 3.53359V3.53507Z" fill="#E7FD83"/>
<path d="M166.054 0.0549316C164.102 0.0549316 162.516 1.54211 162.516 3.5842C162.516 5.62629 164.102 7.12383 166.054 7.12383C168.007 7.12383 169.593 5.63665 169.593 3.5842C169.593 1.53175 168.007 0.0549316 166.054 0.0549316ZM166.054 6.40022C164.498 6.40022 163.26 5.24007 163.26 3.5842C163.26 1.92833 164.5 0.778542 166.054 0.778542C167.609 0.778542 168.849 1.93869 168.849 3.5842C168.849 5.22971 167.6 6.40022 166.054 6.40022Z" fill="#E7FD83"/>
</svg>
