<svg width="525" height="420" viewBox="0 0 525 420" fill="none" xmlns="http://www.w3.org/2000/svg">
<circle cx="49.1536" cy="156.87" r="49.1536" fill="#38332E"/>
<circle cx="49.1536" cy="49.1536" r="49.1536" fill="#38332E"/>
<circle cx="49.1536" cy="262.503" r="48.6536" fill="#38332E" stroke="#38332E"/>
<circle cx="49.1536" cy="370.222" r="48.6536" stroke="#38332E"/>
<ellipse cx="155.828" cy="156.87" rx="50.1994" ry="49.1536" fill="#38332E"/>
<ellipse cx="155.828" cy="49.1536" rx="50.1994" ry="49.1536" fill="#38332E"/>
<path d="M155.828 213.842C183.286 213.842 205.527 235.634 205.527 262.495C205.527 289.356 183.286 311.148 155.828 311.148C128.37 311.148 106.129 289.356 106.129 262.495C106.129 235.635 128.37 213.842 155.828 213.842Z" fill="#38332E" stroke="#38332E"/>
<path d="M155.828 321.568C183.286 321.568 205.527 343.361 205.527 370.222C205.527 397.082 183.286 418.875 155.828 418.875C128.37 418.875 106.129 397.082 106.129 370.222C106.129 343.361 128.37 321.568 155.828 321.568Z" stroke="#38332E"/>
<ellipse cx="260.93" cy="156.87" rx="49.6765" ry="49.1536" fill="#38332E"/>
<ellipse cx="260.93" cy="49.1536" rx="49.6765" ry="49.1536" fill="#38332E"/>
<circle cx="368.13" cy="156.87" r="49.1536" fill="#38332E"/>
<circle cx="475.849" cy="156.87" r="49.1536" fill="#38332E"/>
<circle cx="368.13" cy="49.1536" r="49.1536" fill="#38332E"/>
<circle cx="475.849" cy="49.1536" r="49.1536" fill="#38332E"/>
<path d="M260.931 213.842C288.095 213.842 310.106 235.63 310.106 262.495C310.106 289.361 288.095 311.148 260.931 311.148C233.766 311.148 211.754 289.361 211.754 262.495C211.754 235.63 233.766 213.842 260.931 213.842Z" fill="#38332E" stroke="#38332E"/>
<circle cx="368.13" cy="262.495" r="48.6536" fill="#38332E" stroke="#38332E"/>
<circle cx="475.849" cy="262.495" r="48.6536" fill="#38332E" stroke="#38332E"/>
<path d="M260.931 321.568C288.095 321.569 310.106 343.356 310.106 370.222C310.106 397.087 288.095 418.875 260.931 418.875C233.766 418.875 211.754 397.087 211.754 370.222C211.754 343.356 233.766 321.568 260.931 321.568Z" stroke="#38332E"/>
<circle cx="368.13" cy="370.222" r="48.6536" stroke="#38332E"/>
<circle cx="475.849" cy="370.222" r="48.6536" stroke="#38332E"/>
</svg>
