<svg width="24" height="17" viewBox="0 0 24 17" fill="none" xmlns="http://www.w3.org/2000/svg">
<path fill-rule="evenodd" clip-rule="evenodd" d="M2.4124 15.7846C1.52894 15.4986 0.930213 14.9224 0.612003 14.0561C-0.166773 11.9338 -0.397051 3.06332 1.10188 1.3141C1.61269 0.717207 2.27423 0.369021 3.06138 0.286119C7.10181 -0.144969 19.5915 -0.0827924 21.0319 0.431197C21.8734 0.729643 22.4722 1.27679 22.7988 2.1141C23.6487 4.30685 23.6822 12.282 22.6857 14.396C22.4177 14.968 21.9781 15.3742 21.4171 15.6644C19.9098 16.4478 4.39284 16.4395 2.40822 15.7929L2.4124 15.7846ZM8.83522 11.6312C11.2637 10.3835 13.6712 9.14415 16.1122 7.89234C13.667 6.63223 11.2595 5.38457 8.83522 4.13275V11.6312Z" fill="#1D4933"/>
</svg>
