<svg width="10" height="18" viewBox="0 0 10 18" fill="none" xmlns="http://www.w3.org/2000/svg">
<path fill-rule="evenodd" clip-rule="evenodd" d="M7.4182 2.97443C7.96903 2.9565 8.5235 2.97085 9.07433 2.97085H9.30264V0.129408C9.0091 0.100707 8.69744 0.0576549 8.38941 0.0433042C7.82408 0.0181905 7.25512 -0.0105111 6.68978 0.00383956C5.82366 0.0217779 5.00465 0.229863 4.29074 0.739313C3.47173 1.3241 3.01874 2.14209 2.84841 3.11077C2.77593 3.509 2.75782 3.92517 2.74694 4.33058C2.73245 4.96918 2.74694 5.60779 2.74694 6.24281V6.48318H0V9.65827H2.72882V17.6373H6.06647V9.67262H8.78804C8.92938 8.61785 9.06346 7.57383 9.20842 6.48318H8.59597C7.82408 6.48318 6.04472 6.48318 6.04472 6.48318C6.04472 6.48318 6.05197 4.91178 6.07009 4.22653C6.09546 3.29015 6.65717 3.00672 7.41457 2.97802L7.4182 2.97443Z" fill="#1D4933"/>
</svg>
