<svg width="88" height="27" viewBox="0 0 88 27" fill="none" xmlns="http://www.w3.org/2000/svg">
<path fill-rule="evenodd" clip-rule="evenodd" d="M54.5981 10.4699C54.2496 6.12148 52.3928 0.348485 44.1821 0.348485C34.0376 0.348485 31.6734 7.96692 31.6734 13.3936C31.6734 18.8203 34.0376 26.5549 44.1821 26.5549C52.3905 26.5549 54.2496 20.7819 54.5981 16.4335C54.5981 16.3569 54.6356 16.2801 54.7525 16.2801C54.8297 16.2801 54.8694 16.3569 54.8694 16.4335L54.3268 26.4388C54.3268 26.6317 54.1725 26.6317 54.0555 26.5549C54.0555 26.5549 52.7632 25.6979 52.3134 25.3999C52.2714 25.3713 52.2516 25.3736 52.1965 25.3999C49.4001 26.7719 47.0844 26.8245 44.18 26.8245C35.7378 26.8245 28.9608 21.7462 28.9608 13.3936C28.9608 5.04096 35.7378 0 44.18 0C47.0844 0 49.2545 0.460262 52.1965 1.53859C52.2737 1.57804 52.3134 1.53859 52.3134 1.53859L54.0555 0.269582C54.1328 0.269582 54.3268 0.269582 54.3268 0.462453L54.8694 10.3537C54.8694 10.5466 54.8694 10.6233 54.7525 10.6233C54.6752 10.6233 54.5981 10.5466 54.5981 10.4699ZM26.8393 15.5438C25.7123 22.1342 24.9448 26.2568 17.0519 26.2568H8.52593C6.26984 26.2568 6.26984 25.4503 6.26984 20.9222V0.749563C6.26984 0.659702 6.36026 0.569841 6.45069 0.569841H17.9539C24.4045 0.569841 24.8544 3.61853 25.4873 9.22276C25.4873 9.22276 25.5314 9.31263 25.6218 9.31263C25.7123 9.31263 25.7565 9.22276 25.7565 9.13291L24.8986 0.929283C24.8691 0.511396 24.7942 0.302451 24.6735 0.302451H0.27126C0.0904198 0.302451 0 0.346285 0 0.436147C0 0.526007 0.0904198 0.569841 0.27126 0.569841C4.19459 0.569841 4.19459 2.18295 4.19459 7.02446V19.7562C4.19459 24.6415 4.19459 26.2568 0.180839 26.2568C0.0904198 26.2568 0 26.3007 0 26.3905C0 26.4805 0.0904198 26.5242 0.180839 26.5242H25.1676C25.2867 26.5242 25.3948 26.4805 25.441 26.2107L27.1546 15.5415C27.1987 15.2719 26.8834 15.2719 26.8393 15.5415V15.5438ZM19.352 19.2652C19.4865 19.2652 19.4865 19.1754 19.4865 19.1315L20.1636 7.20639C20.1636 7.11652 20.1195 7.07269 20.0291 7.07269C19.9386 7.07269 19.8944 7.11652 19.8944 7.20639C19.6231 12.0917 19.3542 12.9882 12.2705 12.9882H7.03722C6.76596 12.9882 6.76596 13.2577 7.03722 13.2577H12.2705C18.225 13.2577 19.3078 14.0643 19.3078 17.1568C19.3078 17.664 19.2744 18.2043 19.2353 18.8383C19.2295 18.9333 19.2235 19.0302 19.2174 19.1294C19.2174 19.1294 19.2174 19.2631 19.352 19.2631V19.2652ZM67.1795 26.2152C62.4248 26.1779 62.4248 24.6152 62.4248 19.7759V7.04638C62.4248 2.24431 62.4248 0.644356 67.1795 0.607098C67.2568 0.607098 67.334 0.569838 67.334 0.453677C67.334 0.337516 67.2568 0.300257 67.1795 0.300257H56.3666C56.2895 0.300257 56.2123 0.337516 56.2123 0.453677C56.2123 0.569838 56.2895 0.607098 56.3666 0.607098C60.3165 0.644356 60.3165 2.24651 60.3165 7.04638V19.7737C60.3165 24.6131 60.3165 26.1758 56.3666 26.213C56.252 26.213 56.2123 26.2898 56.2123 26.3665C56.2123 26.4431 56.2498 26.5198 56.3666 26.5198H67.1795C67.2568 26.5198 67.334 26.4826 67.334 26.3665C67.334 26.2503 67.2568 26.213 67.1795 26.213V26.2152ZM86.8486 26.3291C87.1176 26.3291 87.4639 26.3291 87.6932 26.2525V26.2503C87.8079 26.213 87.885 26.2898 87.885 26.4037C87.885 26.8617 85.3158 26.9757 84.7799 26.9757C81.2113 26.9757 79.8469 24.6708 77.7117 21.0636C77.3914 20.5223 77.0536 19.9516 76.6885 19.3552C74.9241 16.3832 72.624 12.9158 69.0579 12.9158C66.6431 12.9158 65.0993 13.7618 63.8047 14.8204C63.7099 14.8975 63.6287 14.9662 63.5581 15.0261C63.2697 15.2705 63.1613 15.3623 63.0372 15.2391C62.9257 15.1281 63.1649 14.9384 63.2592 14.8636L63.2666 14.8577C64.9383 13.5229 69.8629 9.40906 69.8629 9.40906C78.6071 2.16979 80.1796 0.607098 74.5801 0.607098C74.5029 0.607098 74.4257 0.569838 74.4257 0.453677C74.4257 0.337516 74.5029 0.300257 74.5801 0.300257H85.6996C85.7767 0.300257 85.8539 0.337516 85.8539 0.453677C85.8539 0.569838 85.7767 0.607098 85.6996 0.607098C81.291 0.644356 79.2203 2.28376 70.4362 9.41125L65.8358 13.1459L65.8733 13.1832C67.6001 12.2298 69.1704 11.9252 70.5134 11.9252C74.6531 11.9252 76.9303 15.5031 78.3234 17.6921C78.4785 17.9357 78.6227 18.162 78.7571 18.3644C79.0796 18.855 79.4124 19.4119 79.7624 19.9978C81.4519 22.8251 83.5457 26.3291 86.8486 26.3291Z" fill="#191A1A"/>
</svg>
