<svg width="350" height="47" viewBox="0 0 350 47" fill="none" xmlns="http://www.w3.org/2000/svg">
<path d="M250.811 14.8579C249.692 13.7385 248.368 12.8669 246.84 12.2399C245.325 11.6145 243.664 11.3018 241.859 11.3018C240.055 11.3018 238.442 11.6145 236.915 12.2399C235.399 12.8653 234.077 13.7385 232.946 14.8579C231.815 15.9773 230.93 17.288 230.293 18.7933C229.668 20.2853 229.355 21.8988 229.355 23.6303C229.355 25.3618 229.65 27.0002 230.24 28.5038C230.829 29.9958 231.672 31.3082 232.766 32.4392C233.86 33.5586 235.173 34.4302 236.701 35.0556C238.241 35.681 239.962 35.9937 241.863 35.9937C243.763 35.9937 245.406 35.681 246.933 35.0556C248.461 34.4302 249.778 33.557 250.886 32.4392C252.005 31.3082 252.865 29.9958 253.467 28.5038C254.069 27.0002 254.37 25.3751 254.37 23.6303C254.37 21.8855 254.057 20.2853 253.432 18.7933C252.818 17.2897 251.947 15.9773 250.816 14.8579H250.811ZM246.444 26.5727C246.012 27.4509 245.403 28.1545 244.621 28.6851C243.84 29.2024 242.919 29.4619 241.861 29.4619C240.803 29.4619 239.9 29.2024 239.117 28.6851C238.335 28.1562 237.727 27.4509 237.294 26.5727C236.862 25.6828 236.644 24.7015 236.644 23.6303C236.644 22.5591 236.86 21.5844 237.294 20.7062C237.727 19.8279 238.335 19.1243 239.117 18.5937C239.899 18.0648 240.813 17.8003 241.861 17.8003C242.909 17.8003 243.84 18.0648 244.621 18.5937C245.403 19.1227 246.012 19.8279 246.444 20.7062C246.876 21.5844 247.094 22.5591 247.094 23.6303C247.094 24.7015 246.878 25.6828 246.444 26.5727Z" fill="#E7FD83"/>
<path d="M225.822 25.054C226.521 24.5849 227.116 23.8813 227.608 22.9416C228.114 21.9901 228.367 20.751 228.367 19.224C228.367 17.6971 228.054 16.3548 227.429 15.2354C226.804 14.1043 225.937 13.2378 224.83 12.6356C223.722 12.0219 222.448 11.7158 221.003 11.7158H210.32V35.5429H217.321V27.3643L221.761 35.5429H229.594L223.892 25.9588C224.482 25.8258 225.126 25.5264 225.822 25.0556V25.054ZM220.301 21.3165C219.724 21.6176 219.116 21.7673 218.479 21.7673H217.323V17.1466H218.532C219.169 17.1466 219.771 17.2963 220.336 17.5973C220.902 17.8984 221.184 18.5171 221.184 19.4569C221.184 20.3967 220.89 21.0154 220.3 21.3165H220.301Z" fill="#E7FD83"/>
<path d="M207.75 18.9311L207.123 17.4125L195.83 22.0765L197.827 26.9151L201.796 25.275C201.883 25.6426 201.881 26.0019 201.791 26.3512C201.708 26.6855 201.537 27.0099 201.276 27.3259C201.023 27.6253 200.68 27.9164 200.25 28.1991C199.826 28.4653 199.325 28.7181 198.746 28.9576C198.023 29.257 197.305 29.3901 196.59 29.3601C195.886 29.3252 195.221 29.1506 194.596 28.8362C193.967 28.5102 193.402 28.0727 192.903 27.5238C192.409 26.96 192.008 26.3046 191.701 25.5595C191.398 24.8259 191.223 24.0891 191.18 23.3522C191.142 22.5988 191.233 21.8918 191.454 21.2265C191.671 20.5512 192.015 19.9524 192.49 19.4318C192.971 18.8945 193.573 18.477 194.296 18.1776C195.497 17.682 196.495 17.5439 197.288 17.7618C198.093 17.9764 198.76 18.2858 199.292 18.6916L204.339 13.3257C203.808 12.8933 203.16 12.4725 202.392 12.06C201.618 11.6375 200.719 11.3181 199.693 11.1052C198.662 10.8807 197.493 10.8358 196.182 10.9738C194.872 11.1119 193.417 11.5111 191.815 12.1731C190.048 12.9033 188.571 13.8514 187.387 15.0173C186.213 16.1783 185.335 17.4857 184.749 18.9378C184.164 20.3899 183.886 21.9234 183.916 23.5402C183.951 25.1403 184.3 26.7404 184.962 28.3422C185.627 29.9556 186.515 31.3461 187.623 32.5155C188.737 33.6698 190.016 34.5597 191.459 35.1884C192.898 35.8055 194.443 36.1099 196.094 36.1049C197.757 36.0949 199.471 35.7257 201.239 34.9955C202.952 34.2886 204.377 33.3604 205.518 32.2127C206.659 31.065 207.504 29.771 208.056 28.3322C208.614 26.8785 208.869 25.3532 208.822 23.7581C208.771 22.1513 208.412 20.5429 207.746 18.9295L207.75 18.9311Z" fill="#E7FD83"/>
<path d="M169.297 11.7158L159.48 35.5429H166.952L168.485 31.4095H176.985L178.501 35.5429H185.955L176.138 11.7158H169.299H169.297ZM170.832 25.3434L172.709 20.0906H172.764L174.642 25.3434H170.833H170.832Z" fill="#E7FD83"/>
<path d="M333.295 20.5886H327.288V11.7314H320.309V35.5435H327.288V26.6315H333.295V35.5435H340.256V11.7314H333.295V20.5886Z" fill="#E7FD83"/>
<path d="M311.17 25.8668C311.17 26.7451 311.062 27.4669 310.846 28.0308C310.63 28.5847 310.305 28.9922 309.873 29.2583C309.441 29.5228 308.894 29.6559 308.232 29.6559C307.57 29.6559 306.999 29.5245 306.554 29.2583C306.121 28.9939 305.796 28.5847 305.581 28.0308C305.363 27.4653 305.257 26.7434 305.257 25.8668V11.7236H298.277V26.2461C298.277 28.2071 298.656 29.9137 299.413 31.3691C300.171 32.8245 301.289 33.9555 302.767 34.7606C304.257 35.5656 306.08 35.9698 308.232 35.9698C310.384 35.9698 312.193 35.5673 313.66 34.7606C315.14 33.9555 316.257 32.8245 317.015 31.3691C317.774 29.9137 318.151 28.2055 318.151 26.2461V11.7236H311.172V25.8668H311.17Z" fill="#E7FD83"/>
<path d="M293.772 25.0551C294.468 24.5861 295.064 23.8825 295.558 22.9444C296.063 21.9946 296.316 20.7555 296.316 19.2285C296.316 17.7016 296.003 16.361 295.378 15.2416C294.753 14.1105 293.886 13.2456 292.781 12.6434C291.675 12.0297 290.399 11.7236 288.957 11.7236H278.281V35.5357H285.279V27.3622L289.716 35.5357H297.543L291.844 25.9567C292.433 25.8252 293.077 25.5242 293.773 25.0551H293.772ZM288.254 21.321C287.677 21.622 287.07 21.7717 286.433 21.7717H285.279V17.1544H286.488C287.125 17.1544 287.727 17.3041 288.292 17.6051C288.858 17.9062 289.14 18.5249 289.14 19.4631C289.14 20.4012 288.846 21.0199 288.257 21.321H288.254Z" fill="#E7FD83"/>
<path d="M276.296 11.7314H268.45L262.788 20.6784V11.7314H255.809V35.5435H262.788V25.5303L269.046 35.5435H277.36L268.795 23.042L276.296 11.7314Z" fill="#E7FD83"/>
<path d="M347.915 14.2893C347.927 13.4876 347.38 12.9736 346.422 12.9736H344.395V16.8625H345.286V15.5801H346.177L347.024 16.8625H347.96L347.035 15.4919C347.604 15.3139 347.905 14.8781 347.915 14.2877V14.2893ZM346.345 14.8682H345.286V13.6972H346.345C346.846 13.6972 347.059 13.9417 347.059 14.276C347.059 14.6103 346.847 14.8665 346.345 14.8665V14.8682Z" fill="#E7FD83"/>
<path d="M346.021 10.958C343.826 10.958 342.043 12.6296 342.043 14.925C342.043 17.2204 343.826 18.9037 346.021 18.9037C348.216 18.9037 349.999 17.232 349.999 14.925C349.999 12.618 348.216 10.958 346.021 10.958ZM346.021 18.0903C344.271 18.0903 342.879 16.7863 342.879 14.925C342.879 13.0638 344.273 11.7714 346.021 11.7714C347.769 11.7714 349.162 13.0754 349.162 14.925C349.162 16.7746 347.759 18.0903 346.021 18.0903Z" fill="#E7FD83"/>
</svg>
